<?xml version="1.0" standalone="no"?><svg xmlns="http://www.w3.org/2000/svg" viewBox="0 0 1440 320"><path fill="#0c9463" fill-opacity="1" d="M0,160L30,138.7C60,117,120,75,180,90.7C240,107,300,181,360,208C420,235,480,213,540,186.7C600,160,660,128,720,128C780,128,840,160,900,192C960,224,1020,256,1080,261.3C1140,267,1200,245,1260,208C1320,171,1380,117,1410,90.7L1440,64L1440,320L1410,320C1380,320,1320,320,1260,320C1200,320,1140,320,1080,320C1020,320,960,320,900,320C840,320,780,320,720,320C660,320,600,320,540,320C480,320,420,320,360,320C300,320,240,320,180,320C120,320,60,320,30,320L0,320Z"></path></svg>