<?xml version="1.0" standalone="no"?><svg xmlns="http://www.w3.org/2000/svg" viewBox="0 0 1440 320"><path fill="#191a19" fill-opacity="1" d="M0,160L30,138.7C60,117,120,75,180,90.7C240,107,300,181,360,208C420,235,480,213,540,186.7C600,160,660,128,720,128C780,128,840,160,900,192C960,224,1020,256,1080,261.3C1140,267,1200,245,1260,208C1320,171,1380,117,1410,90.7L1440,64L1440,0L1410,0C1380,0,1320,0,1260,0C1200,0,1140,0,1080,0C1020,0,960,0,900,0C840,0,780,0,720,0C660,0,600,0,540,0C480,0,420,0,360,0C300,0,240,0,180,0C120,0,60,0,30,0L0,0Z"></path></svg>